<svg xmlns="http://www.w3.org/2000/svg" width="140.001" height="20.001" viewBox="0 0 140.001 20.001"><defs><style>.a{fill:#292929;}</style></defs><path class="a" d="M-2514,2248h-140v-12.23l5,4.87-1.18,6.88,6.179-3.25,6.181,3.25-1.18-6.88,5-4.87-6.909-1.01-3.091-6.26-3.09,6.26-6.909,1.01V2228h140v7.771l-6.91-1.01-3.09-6.26-3.091,6.26-6.909,1.01,5,4.87-1.18,6.88,6.18-3.25,6.179,3.25-1.18-6.88,5-4.87V2248Zm-40-3.73h0l6.18,3.25-1.18-6.88,5-4.87-6.909-1.01-3.091-6.26-3.09,6.26-6.91,1.01,5,4.87-1.18,6.88,6.179-3.25Zm-30,0h0l6.18,3.25-1.18-6.88,5-4.87-6.91-1.01-3.09-6.26-3.09,6.26-6.91,1.01,5,4.87-1.18,6.88,6.18-3.25Zm-30,0h0l6.179,3.25-1.18-6.88,5-4.87-6.91-1.01-3.09-6.26-3.091,6.26-6.909,1.01,5,4.87-1.18,6.88,6.18-3.25Z" transform="translate(2654 -2228)"/></svg>